<?xml version="1.0" encoding="iso-8859-1"?>
<!-- Generator: Adobe Illustrator 13.0.2, SVG Export Plug-In . SVG Version: 6.00 Build 14948)  -->
<!DOCTYPE svg PUBLIC "-//W3C//DTD SVG 1.1//EN" "http://www.w3.org/Graphics/SVG/1.1/DTD/svg11.dtd">
<svg version="1.1"
	 id="svg1441" sodipodi:docname="rubiks_cube_simple_ptl.svg" xmlns:inkscape="http://www.inkscape.org/namespaces/inkscape" xmlns:rdf="http://www.w3.org/1999/02/22-rdf-syntax-ns#" sodipodi:version="0.32" xmlns:svg="http://www.w3.org/2000/svg" sodipodi:docbase="/home/petri/Desktop/Omat Open ClipArt kuvat" inkscape:version="0.41" xmlns:cc="http://web.resource.org/cc/" xmlns:dc="http://purl.org/dc/elements/1.1/" xmlns:sodipodi="http://inkscape.sourceforge.net/DTD/sodipodi-0.dtd"
	 xmlns="http://www.w3.org/2000/svg" xmlns:xlink="http://www.w3.org/1999/xlink" x="0px" y="0px" width="421.484px"
	 height="487.379px" viewBox="93 57.331 421.484 487.379" style="enable-background:new 93 57.331 421.484 487.379;"
	 xml:space="preserve">
<sodipodi:namedview  showguides="false" inkscape:document-units="px" inkscape:zoom="0.37512071" inkscape:window-x="0" inkscape:pageshadow="2" inkscape:pageopacity="0.0" showborder="false" inkscape:window-height="691" inkscape:window-width="1024" inkscape:window-y="26" showgrid="true" pagecolor="#ffffff" bordercolor="#666666" borderopacity="1.0" inkscape:cx="313.37113" inkscape:current-layer="layer1" inkscape:cy="607.09023" id="base">
	</sodipodi:namedview>
<g id="layer1" inkscape:label="Layer 1" inkscape:groupmode="layer">
	<g id="g11216" transform="matrix(1.045876,0.000000,0.000000,1.010286,-25.11667,-5.822580)">
		<path id="rect5005" style="fill:#F41809;" d="M326.773,482.55l43.838-32.73c4.328-3.232,7.837-2.635,7.837,1.332v45.928
			c0,3.967-3.509,9.803-7.837,13.036l-43.838,32.73c-4.329,3.23-7.838,2.635-7.838-1.334v-45.928
			C318.935,491.617,322.444,485.78,326.773,482.55z"/>
		<path id="rect5765" style="fill:#F41809;" d="M329.106,407.645l42.143-31.463c4.797-3.582,8.685-2.589,8.685,2.219v42.887
			c0,4.808-3.888,11.607-8.685,15.189l-42.143,31.464c-4.797,3.58-8.685,2.587-8.685-2.221v-42.887
			C320.421,418.026,324.309,411.225,329.106,407.645z"/>
		<path id="rect5767" style="fill:#F41809;" d="M325.506,336.15l49.343-36.84c2.809-2.098,5.084,2.043,5.084,9.249v34.205
			c0,7.205-2.275,14.745-5.084,16.84l-49.343,36.842c-2.809,2.096-5.084-2.045-5.084-9.249V352.99
			C320.422,345.785,322.697,338.245,325.506,336.15z"/>
		<path id="rect5769" style="fill:#F41809;" d="M396.33,282.837l44.234-32.759c4.354-3.223,7.883-0.785,7.883,5.446v37.731
			c0,6.231-3.529,13.896-7.883,17.119l-44.234,32.759c-4.354,3.223-7.883,0.785-7.883-5.446v-37.731
			C388.448,293.725,391.976,286.059,396.33,282.837z"/>
		<path id="rect5771" style="fill:#F41809;" d="M394.635,357.819l47.624-35.268c3.417-2.531,6.188,1.45,6.188,8.893v33.345
			c0,7.443-2.77,15.528-6.188,18.058l-47.624,35.268c-3.417,2.531-6.188-1.452-6.188-8.895v-33.345
			C388.448,368.433,391.218,360.35,394.635,357.819z"/>
		<path id="rect5773" style="fill:#F41809;" d="M395.692,429.937l42.541-31.504c4.821-3.571,8.729,0.06,8.729,8.108v31.152
			c0,8.048-3.909,17.465-8.729,21.036l-42.541,31.504c-4.822,3.569-8.73-0.06-8.73-8.108v-31.152
			C386.962,442.924,390.871,433.506,395.692,429.937z"/>
		<path id="rect5775" style="fill:#F41809;" d="M462.845,377.564l44.234-32.757c4.354-3.225,7.883-0.771,7.883,5.477v37.665
			c0,6.25-3.529,13.929-7.883,17.154l-44.234,32.757c-4.354,3.225-7.883,0.771-7.883-5.479v-37.663
			C454.963,388.467,458.491,380.788,462.845,377.564z"/>
		<path id="rect5777" style="fill:#F41809;" d="M462.967,308.647l45.93-34.013c3.885-2.877,7.035-0.043,7.035,6.331v37.213
			c0,6.374-3.149,13.875-7.035,16.752l-45.93,34.013c-3.885,2.877-7.035,0.041-7.035-6.333v-37.213
			C455.933,319.023,459.082,311.524,462.967,308.647z"/>
		<path id="rect5779" style="fill:#F41809;" d="M462.967,234.191l45.93-34.011c3.885-2.877,7.035-1.904,7.035,2.173v45.53
			c0,4.077-3.149,9.715-7.035,12.593l-45.93,34.011c-3.885,2.879-7.035,1.904-7.035-2.171v-45.532
			C455.933,242.706,459.082,237.069,462.967,234.191z"/>
		<path id="rect8055" style="fill:#0000DD;" d="M255.985,451.21l44.436,30.897c4.163,2.894,7.538,10.967,7.538,18.031v34.713
			c0,7.064-3.374,10.445-7.538,7.551l-44.436-30.897c-4.163-2.896-7.538-10.969-7.538-18.033V458.76
			C248.447,451.696,251.822,448.314,255.985,451.21z"/>
		<path id="rect8815" style="fill:#0000DD;" d="M256.985,376.535l44.436,30.897c4.164,2.894,7.538,8.239,7.538,11.94v46.898
			c0,3.7-3.374,4.352-7.538,1.458l-44.436-30.897c-4.163-2.894-7.538-8.239-7.538-11.94v-46.898
			C249.447,374.292,252.822,373.641,256.985,376.535z"/>
		<path id="rect8817" style="fill:#0000DD;" d="M256.985,305.21l44.436,30.897c4.164,2.894,7.538,9.138,7.538,13.944v42.887
			c0,4.808-3.374,6.358-7.538,3.464l-44.436-30.897c-4.163-2.894-7.538-9.138-7.538-13.946v-42.887
			C249.447,303.866,252.822,302.316,256.985,305.21z"/>
		<path id="rect8819" style="fill:#0000DD;" d="M188.985,404.534l44.436,30.897c4.163,2.896,7.538,10.188,7.538,16.291v38.195
			c0,6.103-3.375,8.703-7.538,5.809l-44.436-30.897c-4.163-2.894-7.538-10.188-7.538-16.291v-38.195
			C181.447,404.24,184.822,401.64,188.985,404.534z"/>
		<path id="rect8821" style="fill:#0000DD;" d="M188.985,331.535l44.436,30.897c4.163,2.894,7.538,10.544,7.538,17.086v36.604
			c0,6.542-3.375,9.5-7.538,6.606l-44.436-30.897c-4.163-2.894-7.538-10.546-7.538-17.088v-36.604
			C181.447,331.597,184.822,328.641,188.985,331.535z"/>
		<path id="rect8823" style="fill:#0000DD;" d="M189.473,261.21l44.437,30.897c4.163,2.894,7.538,9.494,7.538,14.741v41.296
			c0,5.247-3.375,7.153-7.538,4.259l-44.437-30.897c-4.163-2.894-7.538-9.494-7.538-14.741v-41.296
			C181.936,260.222,185.31,258.315,189.473,261.21z"/>
		<path id="rect8825" style="fill:#0000DD;" d="M120.474,357.21l44.436,30.897c4.163,2.894,7.538,8.866,7.538,13.339v44.097
			c0,4.474-3.375,5.753-7.538,2.859l-44.436-30.897c-4.163-2.896-7.538-8.868-7.538-13.341v-44.097
			C112.936,355.594,116.311,354.314,120.474,357.21z"/>
		<path id="rect8827" style="fill:#0000DD;" d="M121.474,287.21l44.436,30.897c4.163,2.894,7.538,8.715,7.538,13.001v44.776
			c0,4.286-3.375,5.413-7.538,2.519l-44.436-30.897c-4.163-2.894-7.538-8.715-7.538-13.001v-44.778
			C113.936,285.443,117.311,284.316,121.474,287.21z"/>
		<path id="rect8829" style="fill:#0000DD;" d="M121.474,215.21l44.436,30.897c4.163,2.894,7.538,8.317,7.538,12.11v46.556
			c0,3.795-3.375,4.524-7.538,1.63l-44.436-30.897c-4.163-2.894-7.538-8.317-7.538-12.112v-46.556
			C113.936,213.045,117.311,212.316,121.474,215.21z"/>
		<g id="g11205" transform="matrix(0.967312,0.654847,-0.933027,0.678910,326.7118,-16.80845)">
			<path id="rect10429" style="fill:#FFE200;" d="M52.12,210.565l50.484-0.704c2.493-0.035,4.513,4.067,4.513,9.164l0,41.84
				c0,5.097-2.021,9.256-4.514,9.291l-50.484,0.705c-2.493,0.035-4.513-4.067-4.513-9.164l0-41.84
				C47.606,214.759,49.627,210.6,52.12,210.565z"/>
			<path id="rect11189" style="fill:#FFE200;" d="M122.12,210.992l50.483-0.706c2.494-0.034,4.514,4.069,4.515,9.165l0,41.839
				c0,5.097-2.021,9.256-4.514,9.291l-50.484,0.705c-2.493,0.035-4.513-4.067-4.513-9.164l0-41.84
				C117.606,215.187,119.627,211.027,122.12,210.992z"/>
			<path id="rect11191" style="fill:#FFE200;" d="M192.608,209.991l50.484-0.705c2.493-0.035,4.514,4.069,4.514,9.164l0.001,41.841
				c-0.001,5.096-2.021,9.256-4.515,9.29l-50.483,0.707c-2.494,0.034-4.514-4.069-4.515-9.166l0-41.839
				C188.094,214.186,190.115,210.027,192.608,209.991z"/>
			<path id="rect11193" style="fill:#FFE200;" d="M52.608,137.991l50.484-0.705c2.493-0.034,4.514,4.069,4.514,9.165l0.001,41.841
				c-0.001,5.095-2.022,9.255-4.515,9.29l-50.483,0.706c-2.493,0.034-4.514-4.069-4.514-9.165l0-41.84
				C48.094,142.186,50.115,138.026,52.608,137.991z"/>
			<path id="rect11195" style="fill:#FFE200;" d="M122.12,136.992l50.483-0.706c2.494-0.034,4.514,4.069,4.515,9.166l0,41.839
				c0,5.097-2.021,9.256-4.514,9.292l-50.484,0.705c-2.493,0.035-4.514-4.069-4.513-9.164l-0.001-41.841
				C117.606,141.186,119.626,137.026,122.12,136.992z"/>
			<path id="rect11197" style="fill:#FFE200;" d="M194.12,135.991l50.484-0.705c2.493-0.035,4.514,4.069,4.513,9.164l0.001,41.841
				c-0.001,5.096-2.021,9.256-4.515,9.29l-50.483,0.706c-2.494,0.033-4.514-4.069-4.514-9.166l0-41.839
				C189.606,140.186,191.627,136.027,194.12,135.991z"/>
			<path id="rect11199" style="fill:#FFE200;" d="M52.608,67.041l50.484-0.705c2.493-0.035,4.514,4.068,4.514,9.165l0,41.84
				c0,5.096-2.021,9.256-4.514,9.291l-50.484,0.705c-2.493,0.035-4.514-4.068-4.514-9.165l0-41.84
				C48.094,71.235,50.115,67.076,52.608,67.041z"/>
			<path id="rect11201" style="fill:#FFE200;" d="M123.12,64.992l50.483-0.705c2.493-0.035,4.514,4.069,4.514,9.165l0,41.84
				c0,5.097-2.021,9.256-4.514,9.292l-50.484,0.705c-2.493,0.034-4.514-4.069-4.514-9.165l0-41.84
				C118.606,69.186,120.627,65.027,123.12,64.992z"/>
			<path id="rect11203" style="fill:#FFE200;" d="M194.119,64.991l50.484-0.706c2.492-0.035,4.514,4.069,4.514,9.166l0,41.839
				c0,5.097-2.021,9.256-4.514,9.292l-50.484,0.705c-2.493,0.035-4.514-4.069-4.515-9.165l0.001-41.839
				C189.606,69.186,191.627,65.026,194.119,64.991z"/>
		</g>
	</g>
</g>
</svg>
