<svg enable-background="new 0 0 1500 1500" height="1500" viewBox="0 0 1500 1500" width="1500" xmlns="http://www.w3.org/2000/svg"><path d="m439.027 200.153 11.348 45.337 32.495-33.589-12.841 44.936 44.937-12.841-33.589 32.496 45.337 11.347-45.337 11.348 33.589 32.495-44.937-12.841 12.841 44.937-32.495-33.59-11.348 45.338-11.347-45.338-32.496 33.59 12.841-44.937-44.936 12.841 33.589-32.495-45.337-11.348 45.337-11.347-33.589-32.496 44.936 12.841-12.841-44.936 32.496 33.589z" fill="#fff"/><path d="m439.027 377.552c-.93 0-1.74-.633-1.966-1.535l-10.461-41.797-29.959 30.967c-.646.669-1.666.811-2.47.346-.805-.465-1.191-1.418-.936-2.312l11.839-41.429-41.429 11.839c-.896.254-1.847-.13-2.312-.936-.465-.805-.322-1.823.346-2.47l30.967-29.959-41.798-10.461c-.902-.226-1.535-1.037-1.535-1.966s.633-1.74 1.535-1.966l41.798-10.461-30.967-29.959c-.668-.646-.811-1.665-.346-2.47.465-.806 1.419-1.19 2.312-.936l41.429 11.839-11.839-41.429c-.255-.894.13-1.848.936-2.312.804-.464 1.823-.322 2.47.346l29.959 30.967 10.461-41.798c.226-.902 1.037-1.535 1.966-1.535s1.74.633 1.966 1.535l10.461 41.798 29.959-30.967c.646-.668 1.664-.811 2.47-.346s1.191 1.418.936 2.312l-11.839 41.429 41.429-11.839c.895-.256 1.847.13 2.312.936.465.805.322 1.823-.346 2.47l-30.967 29.959 41.798 10.461c.902.226 1.535 1.037 1.535 1.966s-.633 1.74-1.535 1.966l-41.798 10.461 30.967 29.959c.668.646.811 1.665.346 2.47-.465.806-1.417 1.191-2.312.936l-41.429-11.839 11.839 41.429c.255.894-.13 1.848-.936 2.312-.804.464-1.822.323-2.47-.346l-29.959-30.967-10.461 41.798c-.225.901-1.036 1.534-1.966 1.534zm-11.347-49.39c.175 0 .351.022.524.069.711.19 1.263.751 1.442 1.465l9.381 37.482 9.381-37.482c.179-.714.731-1.275 1.442-1.465.71-.191 1.469.019 1.981.548l26.866 27.77-10.617-37.151c-.202-.708-.005-1.47.516-1.99s1.282-.716 1.99-.516l37.151 10.617-27.77-26.866c-.529-.512-.739-1.27-.548-1.981s.751-1.263 1.465-1.442l37.482-9.381-37.482-9.381c-.714-.179-1.275-.731-1.465-1.442s.019-1.469.548-1.981l27.77-26.865-37.151 10.616c-.708.201-1.47.005-1.99-.516s-.718-1.282-.516-1.99l10.617-37.151-26.866 27.77c-.512.529-1.271.74-1.981.548-.711-.19-1.263-.751-1.442-1.465l-9.381-37.482-9.381 37.482c-.179.714-.731 1.275-1.442 1.465-.711.191-1.47-.02-1.981-.548l-26.865-27.77 10.616 37.151c.202.708.005 1.47-.516 1.99s-1.283.718-1.99.516l-37.151-10.616 27.77 26.865c.529.512.739 1.27.548 1.981-.19.711-.751 1.263-1.465 1.442l-37.482 9.381 37.482 9.381c.714.179 1.275.731 1.465 1.442.191.711-.019 1.469-.548 1.981l-27.77 26.866 37.151-10.617c.708-.201 1.47-.005 1.99.516s.718 1.282.516 1.99l-10.616 37.151 26.865-27.77c.387-.4.915-.617 1.457-.617z" fill="#231f20"/><path d="m373.514 1034.617c-47.225 0-91.644-3.933-125.074-11.073-24.286-5.188-53.235-14.361-53.235-28.606s28.95-23.419 53.235-28.606c33.43-7.14 77.849-11.073 125.074-11.073s91.644 3.933 125.074 11.073c24.286 5.188 53.235 14.361 53.235 28.606s-28.95 23.419-53.235 28.606c-33.431 7.141-77.85 11.073-125.074 11.073zm0-75.305c-104.235 0-174.255 18.421-174.255 35.625s70.02 35.625 174.255 35.625 174.255-18.421 174.255-35.625-70.02-35.625-174.255-35.625z" fill="#231f20"/><path d="m373.514 1072.27c-47.225 0-91.643-3.933-125.074-11.073-24.286-5.187-53.235-14.361-53.235-28.606s28.95-23.419 53.235-28.606c33.43-7.14 77.849-11.073 125.074-11.073s91.644 3.933 125.074 11.073c24.286 5.188 53.235 14.361 53.235 28.606s-28.95 23.419-53.235 28.606c-33.431 7.14-77.85 11.073-125.074 11.073zm0-75.305c-104.235 0-174.255 18.421-174.255 35.625 0 17.205 70.02 35.626 174.255 35.626s174.255-18.421 174.255-35.626c0-17.204-70.02-35.625-174.255-35.625z" fill="#231f20"/><path d="m373.514 959.312c-47.225 0-91.643-3.933-125.074-11.073-24.286-5.187-53.235-14.361-53.235-28.606s28.95-23.419 53.235-28.606c33.43-7.14 77.849-11.073 125.074-11.073s91.644 3.933 125.074 11.073c24.286 5.188 53.235 14.361 53.235 28.606s-28.95 23.419-53.235 28.606c-33.431 7.141-77.85 11.073-125.074 11.073zm0-75.305c-104.235 0-174.255 18.421-174.255 35.625 0 17.205 70.02 35.626 174.255 35.626s174.255-18.421 174.255-35.626c0-17.204-70.02-35.625-174.255-35.625z" fill="#231f20"/><path d="m373.514 996.965c-47.225 0-91.644-3.933-125.074-11.073-24.286-5.188-53.235-14.361-53.235-28.606s28.95-23.419 53.235-28.606c33.431-7.141 77.849-11.073 125.074-11.073s91.643 3.933 125.074 11.073c24.286 5.187 53.235 14.361 53.235 28.606s-28.95 23.419-53.235 28.606c-33.431 7.14-77.85 11.073-125.074 11.073zm0-75.305c-104.235 0-174.255 18.421-174.255 35.626s70.02 35.625 174.255 35.625 174.255-18.421 174.255-35.625c0-17.205-70.02-35.626-174.255-35.626z" fill="#231f20"/><path d="m373.514 1109.922c-47.225 0-91.644-3.933-125.074-11.073-24.286-5.188-53.235-14.361-53.235-28.606s28.95-23.419 53.235-28.606c33.431-7.141 77.849-11.073 125.074-11.073s91.643 3.933 125.074 11.073c24.286 5.187 53.235 14.361 53.235 28.606s-28.95 23.419-53.235 28.606c-33.431 7.141-77.85 11.073-125.074 11.073zm0-75.305c-104.235 0-174.255 18.421-174.255 35.626s70.02 35.625 174.255 35.625 174.255-18.421 174.255-35.625c0-17.205-70.02-35.626-174.255-35.626z" fill="#231f20"/><path d="m373.514 1147.575c-47.225 0-91.644-3.933-125.074-11.073-24.286-5.188-53.235-14.361-53.235-28.606s28.95-23.419 53.235-28.606c33.43-7.14 77.849-11.073 125.074-11.073s91.644 3.933 125.074 11.073c24.286 5.188 53.235 14.361 53.235 28.606s-28.95 23.419-53.235 28.606c-33.431 7.14-77.85 11.073-125.074 11.073zm0-75.305c-104.235 0-174.255 18.421-174.255 35.625s70.02 35.625 174.255 35.625 174.255-18.421 174.255-35.625-70.02-35.625-174.255-35.625z" fill="#231f20"/><path d="m373.514 1185.228c-47.225 0-91.643-3.933-125.074-11.073-24.286-5.187-53.235-14.361-53.235-28.606s28.95-23.419 53.235-28.606c33.43-7.14 77.849-11.073 125.074-11.073s91.644 3.933 125.074 11.073c24.286 5.188 53.235 14.361 53.235 28.606s-28.95 23.419-53.235 28.606c-33.431 7.14-77.85 11.073-125.074 11.073zm0-75.306c-104.235 0-174.255 18.421-174.255 35.625 0 17.205 70.02 35.626 174.255 35.626s174.255-18.421 174.255-35.626c0-17.204-70.02-35.625-174.255-35.625z" fill="#231f20"/><path d="m373.514 1222.88c-47.225 0-91.644-3.933-125.074-11.073-24.286-5.188-53.235-14.361-53.235-28.606s28.95-23.419 53.235-28.606c33.431-7.141 77.849-11.073 125.074-11.073s91.643 3.933 125.074 11.073c24.286 5.187 53.235 14.361 53.235 28.606s-28.95 23.419-53.235 28.606c-33.431 7.14-77.85 11.073-125.074 11.073zm0-75.305c-104.235 0-174.255 18.421-174.255 35.626s70.02 35.625 174.255 35.625 174.255-18.421 174.255-35.625c0-17.205-70.02-35.626-174.255-35.626z" fill="#231f20"/><path d="m840.282 674.797h4.053v156.796h-4.053z" fill="#231f20" transform="matrix(.7071 -.7071 .7071 .7071 -285.8826 816.2075)"/><path d="m763.91 751.168h156.796v4.053h-156.796z" fill="#231f20" transform="matrix(.7071 -.7071 .7071 .7071 -285.8826 816.2075)"/><path d="m787.154 810.638-.563-4.014c.424-.06 42.693-6.313 72.764-36.384 30.07-30.07 36.323-72.339 36.383-72.763l4.014.563c-.062.437-6.477 44.011-37.531 75.066-31.056 31.055-74.631 37.47-75.067 37.532z" fill="#231f20"/><path d="m842.308 833.582c-20.595 0-41.19-7.839-56.869-23.518-31.357-31.358-31.357-82.38 0-113.738 15.19-15.19 35.387-23.556 56.869-23.556s41.679 8.366 56.869 23.556c31.357 31.357 31.357 82.38 0 113.738-15.678 15.678-36.274 23.518-56.869 23.518zm0-156.759c-20.399 0-39.578 7.944-54.002 22.369-29.777 29.777-29.777 78.228 0 108.005 29.778 29.778 78.229 29.777 108.005 0 29.777-29.777 29.777-78.229 0-108.005-14.425-14.425-33.603-22.369-54.003-22.369z" fill="#231f20"/><path d="m820.401 817.644c-1.227 0-2.417-.027-3.57-.077-17.939-.774-30.343-6.864-30.862-7.123l1.807-3.628c.121.06 12.278 6.005 29.398 6.708 22.856.946 43.261-7.407 60.659-24.805s25.744-37.807 24.805-60.659c-.703-17.12-6.648-29.277-6.708-29.398l3.628-1.807c.259.519 6.349 12.923 7.123 30.862.714 16.569-3.213 41.099-25.982 63.868-21.185 21.185-43.895 26.059-60.298 26.059z" fill="#231f20"/><path d="m788.879 808.913-4.014-.563c.062-.437 6.477-44.012 37.531-75.066 31.055-31.055 74.63-37.47 75.066-37.531l.563 4.014c-.424.06-42.693 6.313-72.764 36.383-30.069 30.069-36.322 72.339-36.382 72.763z" fill="#231f20"/><path d="m785.059 809.535c-.259-.519-6.349-12.923-7.123-30.863-.714-16.569 3.213-41.099 25.982-63.868 22.769-22.77 47.296-26.696 63.868-25.982 17.939.773 30.344 6.864 30.863 7.123l-1.807 3.628c-.121-.06-12.279-6.005-29.398-6.708-22.847-.941-43.26 7.407-60.659 24.806-41.557 41.557-18.337 89.576-18.098 90.056z" fill="#231f20"/><path d="m865.176 828.354c-3.128-7.837-13.404-29.064-41.184-56.843-27.78-27.78-49.006-38.055-56.842-41.183l1.503-3.765c8.069 3.221 29.893 13.769 58.205 42.082 28.312 28.312 38.86 50.137 42.082 58.207z" fill="#231f20"/><path d="m835.079 831.916c-3.222-8.862-10.967-23.33-29.564-41.927-18.701-18.701-33.224-26.436-42.114-29.632l1.371-3.814c9.28 3.336 24.378 11.35 43.609 30.581 19.124 19.124 27.146 34.161 30.508 43.409z" fill="#231f20"/><path d="m915.964 779.827c-8.07-3.222-29.895-13.771-58.207-42.082-28.311-28.311-38.86-50.136-42.082-58.206l3.765-1.503c3.128 7.837 13.404 29.063 41.183 56.842s49.006 38.055 56.843 41.184z" fill="#231f20"/><path d="m919.646 749.774c-9.248-3.362-24.286-11.384-43.409-30.508-19.231-19.231-27.245-34.33-30.581-43.609l3.814-1.371c3.196 8.89 10.931 23.412 29.632 42.114 18.598 18.598 33.066 26.343 41.928 29.564z" fill="#231f20"/><path d="m72.518 380.562h773.676v329.452c0 13.432-10.889 24.321-24.321 24.321h-725.034c-13.432 0-24.321-10.889-24.321-24.321z" fill="#fff"/><path d="m821.873 736.362h-725.034c-14.528 0-26.348-11.82-26.348-26.348v-331.478h777.73v331.479c0 14.527-11.82 26.347-26.348 26.347zm-747.329-353.773v327.425c0 12.293 10.001 22.294 22.294 22.294h725.034c12.293 0 22.294-10.001 22.294-22.294v-327.425z" fill="#231f20"/><path d="m96.839 287.839h725.034c13.432 0 24.321 10.889 24.321 24.321v68.402h-773.676v-68.402c0-13.432 10.889-24.321 24.321-24.321z" fill="#fff"/><path d="m848.221 382.589h-777.73v-70.429c0-14.528 11.82-26.348 26.348-26.348h725.034c14.528 0 26.348 11.82 26.348 26.348zm-773.677-4.053h769.623v-66.376c0-12.293-10.001-22.294-22.294-22.294h-725.034c-12.293 0-22.294 10.001-22.294 22.294v66.376z" fill="#231f20"/><circle cx="128.257" cy="334.201" fill="#231f20" r="14.649"/><circle cx="178.878" cy="334.201" fill="#231f20" r="14.649"/><circle cx="229.499" cy="334.201" fill="#231f20" r="14.649"/><path d="m879.615 380.562h547.867v449.76c0 13.432-10.889 24.321-24.321 24.321h-499.225c-13.432 0-24.321-10.889-24.321-24.321z" fill="#fff"/><path d="m1403.161 856.67h-499.225c-14.528 0-26.348-11.82-26.348-26.348v-451.786h551.921v451.787c0 14.528-11.82 26.347-26.348 26.347zm-521.519-474.081v447.733c0 12.293 10.001 22.294 22.294 22.294h499.225c12.293 0 22.294-10.001 22.294-22.294v-447.733z" fill="#231f20"/><path d="m903.936 287.839h499.225c13.432 0 24.321 10.889 24.321 24.321v68.402h-547.867v-68.402c0-13.432 10.889-24.321 24.321-24.321z" fill="#fff"/><path d="m1429.509 382.589h-551.921v-70.429c0-14.528 11.82-26.348 26.348-26.348h499.225c14.528 0 26.348 11.819 26.348 26.348zm-547.867-4.053h543.813v-66.376c0-12.293-10.001-22.294-22.294-22.294h-499.225c-12.293 0-22.294 10.001-22.294 22.294z" fill="#231f20"/><circle cx="935.355" cy="334.201" fill="#231f20" r="14.649"/><circle cx="985.976" cy="334.201" fill="#231f20" r="14.649"/><circle cx="1036.596" cy="334.201" fill="#231f20" r="14.649"/><path d="m879.615 980.643h547.867v294.883c0 13.432-10.889 24.321-24.321 24.321h-499.225c-13.432 0-24.321-10.889-24.321-24.321z" fill="#fff"/><path d="m1403.161 1301.874h-499.225c-14.528 0-26.348-11.819-26.348-26.348v-296.91h551.921v296.91c0 14.529-11.82 26.348-26.348 26.348zm-521.519-319.204v292.856c0 12.293 10.001 22.294 22.294 22.294h499.225c12.293 0 22.294-10.001 22.294-22.294v-292.856z" fill="#231f20"/><path d="m903.936 887.92h499.225c13.432 0 24.321 10.889 24.321 24.321v68.402h-547.867v-68.402c0-13.432 10.889-24.321 24.321-24.321z" fill="#fff"/><path d="m1429.509 982.67h-551.921v-70.429c0-14.528 11.82-26.348 26.348-26.348h499.225c14.528 0 26.348 11.82 26.348 26.348zm-547.867-4.054h543.813v-66.375c0-12.293-10.001-22.294-22.294-22.294h-499.225c-12.293 0-22.294 10.001-22.294 22.294z" fill="#231f20"/><circle cx="935.355" cy="934.282" fill="#231f20" r="14.649"/><circle cx="985.976" cy="934.282" fill="#231f20" r="14.649"/><circle cx="1036.596" cy="934.282" fill="#231f20" r="14.649"/><path d="m476.067 860.479h370.128v415.047c0 13.432-10.889 24.321-24.321 24.321h-321.486c-13.432 0-24.321-10.889-24.321-24.321z" fill="#fff"/><path d="m821.873 1301.874h-321.485c-14.528 0-26.348-11.819-26.348-26.348v-417.073h374.182v417.074c-.001 14.528-11.821 26.347-26.349 26.347zm-343.78-439.368v413.02c0 12.293 10.001 22.294 22.294 22.294h321.485c12.293 0 22.294-10.001 22.294-22.294v-413.02z" fill="#231f20"/><path d="m500.388 767.756h321.486c13.432 0 24.321 10.889 24.321 24.321v68.402h-370.128v-68.402c0-13.432 10.888-24.321 24.321-24.321z" fill="#fff"/><path d="m848.221 862.506h-374.181v-70.429c0-14.528 11.82-26.348 26.348-26.348h321.485c14.528 0 26.348 11.82 26.348 26.348zm-370.128-4.053h366.074v-66.375c0-12.293-10.001-22.294-22.294-22.294h-321.485c-12.293 0-22.294 10.001-22.294 22.294v66.375z" fill="#231f20"/><circle cx="531.806" cy="814.118" fill="#231f20" r="14.649"/><circle cx="582.427" cy="814.118" fill="#231f20" r="14.649"/><circle cx="633.048" cy="814.118" fill="#231f20" r="14.649"/><path d="m72.518 860.479h370.128v415.047c0 13.432-10.889 24.321-24.321 24.321h-321.486c-13.432 0-24.321-10.889-24.321-24.321z" fill="#fff"/><path d="m418.324 1301.874h-321.485c-14.528 0-26.348-11.819-26.348-26.348v-417.073h374.182v417.074c-.001 14.528-11.82 26.347-26.349 26.347zm-343.78-439.368v413.02c0 12.293 10.001 22.294 22.294 22.294h321.485c12.293 0 22.294-10.001 22.294-22.294v-413.02z" fill="#231f20"/><path d="m96.839 767.756h321.486c13.432 0 24.321 10.889 24.321 24.321v68.402h-370.128v-68.402c0-13.432 10.889-24.321 24.321-24.321z" fill="#fff"/><path d="m444.672 862.506h-374.181v-70.429c0-14.528 11.82-26.348 26.348-26.348h321.485c14.528 0 26.348 11.82 26.348 26.348zm-370.128-4.053h366.074v-66.375c0-12.293-10.001-22.294-22.294-22.294h-321.485c-12.293 0-22.294 10.001-22.294 22.294v66.375z" fill="#231f20"/><circle cx="128.257" cy="814.118" fill="#231f20" r="14.649"/><circle cx="178.878" cy="814.118" fill="#231f20" r="14.649"/><circle cx="229.499" cy="814.118" fill="#231f20" r="14.649"/><path d="m126.678 456.887h665.357v14.1h-665.357z" fill="#fff"/><path d="m794.061 473.014h-669.41v-18.154h669.41zm-665.356-4.054h661.303v-10.046h-661.303z" fill="#231f20"/><path d="m126.678 470.987h629.648v14.1h-629.648z" fill="#231f20"/><path d="m126.678 514.528h601.329v14.1h-601.329z" fill="#fff"/><path d="m730.033 530.655h-605.382v-18.154h605.382zm-601.328-4.053h597.275v-10.047h-597.275z" fill="#231f20"/><path d="m126.678 528.628h551.624v14.1h-551.624z" fill="#231f20"/><path d="m126.678 572.169h539.614v14.1h-539.614z" fill="#fff"/><path d="m668.319 588.296h-543.668v-18.154h543.668zm-539.614-4.053h535.561v-10.047h-535.561z" fill="#231f20"/><path d="m126.678 586.269h434.506v14.1h-434.506z" fill="#231f20"/><path d="m126.678 629.81h578.379v14.1h-578.379z" fill="#fff"/><g fill="#231f20"><path d="m707.084 645.938h-582.433v-18.154h582.433zm-578.379-4.054h574.325v-10.046h-574.325z"/><path d="m126.678 643.911h564.741v14.1h-564.741z"/><path d="m124.651 428.745h4.054v257.408h-4.054z"/><path d="m932.311 1245.125h442.476v4.054h-442.476z"/><path d="m1373.978 1032.586c0-.44.36-.81.81-.81.45 0 .81.37.81.81 0 .45-.36.82-.81.82-.451 0-.81-.37-.81-.82zm-8.111 0c0-.44.36-.81.81-.81.45 0 .81.37.81.81 0 .45-.36.82-.81.82-.449 0-.81-.37-.81-.82zm-8.11 0c0-.44.37-.81.81-.81.45 0 .81.37.81.81 0 .45-.36.82-.81.82-.44 0-.81-.37-.81-.82zm-8.1 0c0-.44.36-.81.81-.81.45 0 .81.37.81.81 0 .45-.36.82-.81.82-.45 0-.81-.37-.81-.82zm-8.11 0c0-.44.36-.81.81-.81.45 0 .81.37.81.81 0 .45-.36.82-.81.82-.45 0-.81-.37-.81-.82zm-8.109 0c0-.44.37-.81.81-.81.45 0 .82.37.82.81 0 .45-.37.82-.82.82-.441 0-.81-.37-.81-.82zm-8.101 0c0-.44.36-.81.81-.81.44 0 .81.37.81.81 0 .45-.37.82-.81.82-.45 0-.81-.37-.81-.82zm-8.109 0c0-.44.36-.81.81-.81.45 0 .81.37.81.81 0 .45-.36.82-.81.82-.451 0-.81-.37-.81-.82zm-8.111 0c0-.44.36-.81.81-.81.45 0 .81.37.81.81 0 .45-.36.82-.81.82-.449 0-.81-.37-.81-.82zm-8.1 0c0-.44.36-.81.81-.81.44 0 .81.37.81.81 0 .45-.37.82-.81.82-.45 0-.81-.37-.81-.82zm-8.11 0c0-.44.36-.81.81-.81.45 0 .81.37.81.81 0 .45-.36.82-.81.82-.45 0-.81-.37-.81-.82zm-8.11 0c0-.44.36-.81.81-.81.45 0 .81.37.81.81 0 .45-.36.82-.81.82-.45 0-.81-.37-.81-.82zm-8.109 0c0-.44.37-.81.82-.81.44 0 .81.37.81.81 0 .45-.37.82-.81.82-.451 0-.82-.37-.82-.82zm-8.101 0c0-.44.36-.81.81-.81.45 0 .81.37.81.81 0 .45-.36.82-.81.82-.45 0-.81-.37-.81-.82zm-8.109 0c0-.44.36-.81.81-.81.45 0 .81.37.81.81 0 .45-.36.82-.81.82-.451 0-.81-.37-.81-.82zm-8.111 0c0-.44.37-.81.81-.81.45 0 .81.37.81.81 0 .45-.36.82-.81.82-.44 0-.81-.37-.81-.82zm-8.1 0c0-.44.36-.81.81-.81.44 0 .81.37.81.81 0 .45-.37.82-.81.82-.45 0-.81-.37-.81-.82zm-8.11 0c0-.44.36-.81.81-.81.45 0 .81.37.81.81 0 .45-.36.82-.81.82-.45 0-.81-.37-.81-.82zm-8.11 0c0-.44.37-.81.81-.81.45 0 .81.37.81.81 0 .45-.36.82-.81.82-.44 0-.81-.37-.81-.82zm-8.1 0c0-.44.36-.81.81-.81.44 0 .81.37.81.81 0 .45-.37.82-.81.82-.45 0-.81-.37-.81-.82zm-8.11 0c0-.44.36-.81.81-.81.45 0 .81.37.81.81 0 .45-.36.82-.81.82-.45 0-.81-.37-.81-.82zm-8.109 0c0-.44.36-.81.81-.81.45 0 .81.37.81.81 0 .45-.36.82-.81.82-.451 0-.81-.37-.81-.82zm-8.111 0c0-.44.37-.81.82-.81.44 0 .81.37.81.81 0 .45-.37.82-.81.82-.45 0-.82-.37-.82-.82zm-8.1 0c0-.44.36-.81.81-.81.45 0 .81.37.81.81 0 .45-.36.82-.81.82-.45 0-.81-.37-.81-.82zm-8.11 0c0-.44.36-.81.81-.81.45 0 .81.37.81.81 0 .45-.36.82-.81.82-.45 0-.81-.37-.81-.82zm-8.11 0c0-.44.37-.81.81-.81.45 0 .81.37.81.81 0 .45-.36.82-.81.82-.44 0-.81-.37-.81-.82zm-8.1 0c0-.44.36-.81.81-.81.44 0 .81.37.81.81 0 .45-.37.82-.81.82-.45 0-.81-.37-.81-.82zm-8.11 0c0-.44.36-.81.81-.81.45 0 .81.37.81.81 0 .45-.36.82-.81.82-.45 0-.81-.37-.81-.82zm-8.109 0c0-.44.37-.81.81-.81.45 0 .81.37.81.81 0 .45-.36.82-.81.82-.441 0-.81-.37-.81-.82zm-8.101 0c0-.44.36-.81.81-.81.44 0 .81.37.81.81 0 .45-.37.82-.81.82-.45 0-.81-.37-.81-.82zm-8.11 0c0-.44.36-.81.81-.81.45 0 .81.37.81.81 0 .45-.36.82-.81.82-.45 0-.81-.37-.81-.82zm-8.11 0c0-.44.36-.81.81-.81.45 0 .81.37.81.81 0 .45-.36.82-.81.82-.45 0-.81-.37-.81-.82zm-8.11 0c0-.44.37-.81.82-.81.44 0 .81.37.81.81 0 .45-.37.82-.81.82-.45 0-.82-.37-.82-.82zm-8.1 0c0-.44.36-.81.81-.81.45 0 .81.37.81.81 0 .45-.36.82-.81.82-.45 0-.81-.37-.81-.82zm-8.11 0c0-.44.36-.81.81-.81.45 0 .81.37.81.81 0 .45-.36.82-.81.82-.45 0-.81-.37-.81-.82zm-8.109 0c0-.44.37-.81.81-.81.45 0 .82.37.82.81 0 .45-.37.82-.82.82-.441 0-.81-.37-.81-.82zm-8.101 0c0-.44.36-.81.81-.81.45 0 .81.37.81.81 0 .45-.36.82-.81.82-.45 0-.81-.37-.81-.82zm-8.11 0c0-.44.36-.81.81-.81.45 0 .81.37.81.81 0 .45-.36.82-.81.82-.45 0-.81-.37-.81-.82zm-8.11 0c0-.44.37-.81.81-.81.45 0 .81.37.81.81 0 .45-.36.82-.81.82-.44 0-.81-.37-.81-.82zm-8.1 0c0-.44.36-.81.81-.81.44 0 .81.37.81.81 0 .45-.37.82-.81.82-.45 0-.81-.37-.81-.82zm-8.11 0c0-.44.36-.81.81-.81.45 0 .81.37.81.81 0 .45-.36.82-.81.82-.45 0-.81-.37-.81-.82zm-8.11 0c0-.44.37-.81.81-.81.45 0 .81.37.81.81 0 .45-.36.82-.81.82-.439 0-.81-.37-.81-.82zm-8.1 0c0-.44.36-.81.81-.81.44 0 .81.37.81.81 0 .45-.37.82-.81.82-.45 0-.81-.37-.81-.82zm-8.11 0c0-.44.36-.81.81-.81.45 0 .81.37.81.81 0 .45-.36.82-.81.82-.45 0-.81-.37-.81-.82zm-8.11 0c0-.44.36-.81.81-.81.45 0 .81.37.81.81 0 .45-.36.82-.81.82-.45 0-.81-.37-.81-.82zm-8.11 0c0-.44.37-.81.82-.81.44 0 .81.37.81.81 0 .45-.37.82-.81.82-.45 0-.82-.37-.82-.82zm-8.1 0c0-.44.36-.81.81-.81.45 0 .81.37.81.81 0 .45-.36.82-.81.82-.45 0-.81-.37-.81-.82zm-8.11 0c0-.44.36-.81.81-.81.45 0 .81.37.81.81 0 .45-.36.82-.81.82-.45 0-.81-.37-.81-.82zm-8.11 0c0-.44.37-.81.81-.81.45 0 .81.37.81.81 0 .45-.36.82-.81.82-.439 0-.81-.37-.81-.82zm-8.1 0c0-.44.36-.81.81-.81.44 0 .81.37.81.81 0 .45-.37.82-.81.82-.45 0-.81-.37-.81-.82zm-8.11 0c0-.44.36-.81.81-.81.45 0 .81.37.81.81 0 .45-.36.82-.81.82-.45 0-.81-.37-.81-.82zm-8.11 0c0-.44.37-.81.81-.81.45 0 .81.37.81.81 0 .45-.36.82-.81.82-.44 0-.81-.37-.81-.82zm-8.1 0c0-.44.36-.81.81-.81.44 0 .81.37.81.81 0 .45-.37.82-.81.82-.45 0-.81-.37-.81-.82zm-8.11 0c0-.44.36-.81.81-.81.45 0 .81.37.81.81 0 .45-.36.82-.81.82-.45 0-.81-.37-.81-.82zm-8.11 0c0-.44.36-.81.81-.81.45 0 .81.37.81.81 0 .45-.36.82-.81.82-.45 0-.81-.37-.81-.82z"/><path d="m1373.978 1104.106c0-.44.36-.81.81-.81.45 0 .81.37.81.81 0 .45-.36.82-.81.82-.451 0-.81-.37-.81-.82zm-8.111 0c0-.44.36-.81.81-.81.45 0 .81.37.81.81 0 .45-.36.82-.81.82-.449 0-.81-.37-.81-.82zm-8.11 0c0-.44.37-.81.81-.81.45 0 .81.37.81.81 0 .45-.36.82-.81.82-.44 0-.81-.37-.81-.82zm-8.1 0c0-.44.36-.81.81-.81.45 0 .81.37.81.81 0 .45-.36.82-.81.82-.45 0-.81-.37-.81-.82zm-8.11 0c0-.44.36-.81.81-.81.45 0 .81.37.81.81 0 .45-.36.82-.81.82-.45 0-.81-.37-.81-.82zm-8.109 0c0-.44.37-.81.81-.81.45 0 .82.37.82.81 0 .45-.37.82-.82.82-.441 0-.81-.37-.81-.82zm-8.101 0c0-.44.36-.81.81-.81.44 0 .81.37.81.81 0 .45-.37.82-.81.82-.45 0-.81-.37-.81-.82zm-8.109 0c0-.44.36-.81.81-.81.45 0 .81.37.81.81 0 .45-.36.82-.81.82-.451 0-.81-.37-.81-.82zm-8.111 0c0-.44.36-.81.81-.81.45 0 .81.37.81.81 0 .45-.36.82-.81.82-.449 0-.81-.37-.81-.82zm-8.1 0c0-.44.36-.81.81-.81.44 0 .81.37.81.81 0 .45-.37.82-.81.82-.45 0-.81-.37-.81-.82zm-8.11 0c0-.44.36-.81.81-.81.45 0 .81.37.81.81 0 .45-.36.82-.81.82-.45 0-.81-.37-.81-.82zm-8.11 0c0-.44.36-.81.81-.81.45 0 .81.37.81.81 0 .45-.36.82-.81.82-.45 0-.81-.37-.81-.82zm-8.109 0c0-.44.37-.81.82-.81.44 0 .81.37.81.81 0 .45-.37.82-.81.82-.451 0-.82-.37-.82-.82zm-8.101 0c0-.44.36-.81.81-.81.45 0 .81.37.81.81 0 .45-.36.82-.81.82-.45 0-.81-.37-.81-.82zm-8.109 0c0-.44.36-.81.81-.81.45 0 .81.37.81.81 0 .45-.36.82-.81.82-.451 0-.81-.37-.81-.82zm-8.111 0c0-.44.37-.81.81-.81.45 0 .81.37.81.81 0 .45-.36.82-.81.82-.44 0-.81-.37-.81-.82zm-8.1 0c0-.44.36-.81.81-.81.44 0 .81.37.81.81 0 .45-.37.82-.81.82-.45 0-.81-.37-.81-.82zm-8.11 0c0-.44.36-.81.81-.81.45 0 .81.37.81.81 0 .45-.36.82-.81.82-.45 0-.81-.37-.81-.82zm-8.11 0c0-.44.37-.81.81-.81.45 0 .81.37.81.81 0 .45-.36.82-.81.82-.44 0-.81-.37-.81-.82zm-8.1 0c0-.44.36-.81.81-.81.44 0 .81.37.81.81 0 .45-.37.82-.81.82-.45 0-.81-.37-.81-.82zm-8.11 0c0-.44.36-.81.81-.81.45 0 .81.37.81.81 0 .45-.36.82-.81.82-.45 0-.81-.37-.81-.82zm-8.109 0c0-.44.36-.81.81-.81.45 0 .81.37.81.81 0 .45-.36.82-.81.82-.451 0-.81-.37-.81-.82zm-8.111 0c0-.44.37-.81.82-.81.44 0 .81.37.81.81 0 .45-.37.82-.81.82-.45 0-.82-.37-.82-.82zm-8.1 0c0-.44.36-.81.81-.81.45 0 .81.37.81.81 0 .45-.36.82-.81.82-.45 0-.81-.37-.81-.82zm-8.11 0c0-.44.36-.81.81-.81.45 0 .81.37.81.81 0 .45-.36.82-.81.82-.45 0-.81-.37-.81-.82zm-8.11 0c0-.44.37-.81.81-.81.45 0 .81.37.81.81 0 .45-.36.82-.81.82-.44 0-.81-.37-.81-.82zm-8.1 0c0-.44.36-.81.81-.81.44 0 .81.37.81.81 0 .45-.37.82-.81.82-.45 0-.81-.37-.81-.82zm-8.11 0c0-.44.36-.81.81-.81.45 0 .81.37.81.81 0 .45-.36.82-.81.82-.45 0-.81-.37-.81-.82zm-8.109 0c0-.44.37-.81.81-.81.45 0 .81.37.81.81 0 .45-.36.82-.81.82-.441 0-.81-.37-.81-.82zm-8.101 0c0-.44.36-.81.81-.81.44 0 .81.37.81.81 0 .45-.37.82-.81.82-.45 0-.81-.37-.81-.82zm-8.11 0c0-.44.36-.81.81-.81.45 0 .81.37.81.81 0 .45-.36.82-.81.82-.45 0-.81-.37-.81-.82zm-8.11 0c0-.44.36-.81.81-.81.45 0 .81.37.81.81 0 .45-.36.82-.81.82-.45 0-.81-.37-.81-.82zm-8.11 0c0-.44.37-.81.82-.81.44 0 .81.37.81.81 0 .45-.37.82-.81.82-.45 0-.82-.37-.82-.82zm-8.1 0c0-.44.36-.81.81-.81.45 0 .81.37.81.81 0 .45-.36.82-.81.82-.45 0-.81-.37-.81-.82zm-8.11 0c0-.44.36-.81.81-.81.45 0 .81.37.81.81 0 .45-.36.82-.81.82-.45 0-.81-.37-.81-.82zm-8.109 0c0-.44.37-.81.81-.81.45 0 .82.37.82.81 0 .45-.37.82-.82.82-.441 0-.81-.37-.81-.82zm-8.101 0c0-.44.36-.81.81-.81.45 0 .81.37.81.81 0 .45-.36.82-.81.82-.45 0-.81-.37-.81-.82zm-8.11 0c0-.44.36-.81.81-.81.45 0 .81.37.81.81 0 .45-.36.82-.81.82-.45 0-.81-.37-.81-.82zm-8.11 0c0-.44.37-.81.81-.81.45 0 .81.37.81.81 0 .45-.36.82-.81.82-.44 0-.81-.37-.81-.82zm-8.1 0c0-.44.36-.81.81-.81.44 0 .81.37.81.81 0 .45-.37.82-.81.82-.45 0-.81-.37-.81-.82zm-8.11 0c0-.44.36-.81.81-.81.45 0 .81.37.81.81 0 .45-.36.82-.81.82-.45 0-.81-.37-.81-.82zm-8.11 0c0-.44.37-.81.81-.81.45 0 .81.37.81.81 0 .45-.36.82-.81.82-.439 0-.81-.37-.81-.82zm-8.1 0c0-.44.36-.81.81-.81.44 0 .81.37.81.81 0 .45-.37.82-.81.82-.45 0-.81-.37-.81-.82zm-8.11 0c0-.44.36-.81.81-.81.45 0 .81.37.81.81 0 .45-.36.82-.81.82-.45 0-.81-.37-.81-.82zm-8.11 0c0-.44.36-.81.81-.81.45 0 .81.37.81.81 0 .45-.36.82-.81.82-.45 0-.81-.37-.81-.82zm-8.11 0c0-.44.37-.81.82-.81.44 0 .81.37.81.81 0 .45-.37.82-.81.82-.45 0-.82-.37-.82-.82zm-8.1 0c0-.44.36-.81.81-.81.45 0 .81.37.81.81 0 .45-.36.82-.81.82-.45 0-.81-.37-.81-.82zm-8.11 0c0-.44.36-.81.81-.81.45 0 .81.37.81.81 0 .45-.36.82-.81.82-.45 0-.81-.37-.81-.82zm-8.11 0c0-.44.37-.81.81-.81.45 0 .81.37.81.81 0 .45-.36.82-.81.82-.439 0-.81-.37-.81-.82zm-8.1 0c0-.44.36-.81.81-.81.44 0 .81.37.81.81 0 .45-.37.82-.81.82-.45 0-.81-.37-.81-.82zm-8.11 0c0-.44.36-.81.81-.81.45 0 .81.37.81.81 0 .45-.36.82-.81.82-.45 0-.81-.37-.81-.82zm-8.11 0c0-.44.37-.81.81-.81.45 0 .81.37.81.81 0 .45-.36.82-.81.82-.44 0-.81-.37-.81-.82zm-8.1 0c0-.44.36-.81.81-.81.44 0 .81.37.81.81 0 .45-.37.82-.81.82-.45 0-.81-.37-.81-.82zm-8.11 0c0-.44.36-.81.81-.81.45 0 .81.37.81.81 0 .45-.36.82-.81.82-.45 0-.81-.37-.81-.82zm-8.11 0c0-.44.36-.81.81-.81.45 0 .81.37.81.81 0 .45-.36.82-.81.82-.45 0-.81-.37-.81-.82z"/><path d="m1373.978 1175.636c0-.45.36-.81.81-.81.45 0 .81.36.81.81 0 .44-.36.81-.81.81-.451 0-.81-.37-.81-.81zm-8.111 0c0-.45.36-.81.81-.81.45 0 .81.36.81.81 0 .44-.36.81-.81.81-.449 0-.81-.37-.81-.81zm-8.11 0c0-.45.37-.81.81-.81.45 0 .81.36.81.81 0 .44-.36.81-.81.81-.44 0-.81-.37-.81-.81zm-8.1 0c0-.45.36-.81.81-.81.45 0 .81.36.81.81 0 .44-.36.81-.81.81-.45 0-.81-.37-.81-.81zm-8.11 0c0-.45.36-.81.81-.81.45 0 .81.36.81.81 0 .44-.36.81-.81.81-.45 0-.81-.37-.81-.81zm-8.109 0c0-.45.37-.81.81-.81.45 0 .82.36.82.81 0 .44-.37.81-.82.81-.441 0-.81-.37-.81-.81zm-8.101 0c0-.45.36-.81.81-.81.44 0 .81.36.81.81 0 .44-.37.81-.81.81-.45 0-.81-.37-.81-.81zm-8.109 0c0-.45.36-.81.81-.81.45 0 .81.36.81.81 0 .44-.36.81-.81.81-.451 0-.81-.37-.81-.81zm-8.111 0c0-.45.36-.81.81-.81.45 0 .81.36.81.81 0 .44-.36.81-.81.81-.449 0-.81-.37-.81-.81zm-8.1 0c0-.45.36-.81.81-.81.44 0 .81.36.81.81 0 .44-.37.81-.81.81-.45 0-.81-.37-.81-.81zm-8.11 0c0-.45.36-.81.81-.81.45 0 .81.36.81.81 0 .44-.36.81-.81.81-.45 0-.81-.37-.81-.81zm-8.11 0c0-.45.36-.81.81-.81.45 0 .81.36.81.81 0 .44-.36.81-.81.81-.45 0-.81-.37-.81-.81zm-8.109 0c0-.45.37-.81.82-.81.44 0 .81.36.81.81 0 .44-.37.81-.81.81-.451 0-.82-.37-.82-.81zm-8.101 0c0-.45.36-.81.81-.81.45 0 .81.36.81.81 0 .44-.36.81-.81.81-.45 0-.81-.37-.81-.81zm-8.109 0c0-.45.36-.81.81-.81.45 0 .81.36.81.81 0 .44-.36.81-.81.81-.451 0-.81-.37-.81-.81zm-8.111 0c0-.45.37-.81.81-.81.45 0 .81.36.81.81 0 .44-.36.81-.81.81-.44 0-.81-.37-.81-.81zm-8.1 0c0-.45.36-.81.81-.81.44 0 .81.36.81.81 0 .44-.37.81-.81.81-.45 0-.81-.37-.81-.81zm-8.11 0c0-.45.36-.81.81-.81.45 0 .81.36.81.81 0 .44-.36.81-.81.81-.45 0-.81-.37-.81-.81zm-8.11 0c0-.45.37-.81.81-.81.45 0 .81.36.81.81 0 .44-.36.81-.81.81-.44 0-.81-.37-.81-.81zm-8.1 0c0-.45.36-.81.81-.81.44 0 .81.36.81.81 0 .44-.37.81-.81.81-.45 0-.81-.37-.81-.81zm-8.11 0c0-.45.36-.81.81-.81.45 0 .81.36.81.81 0 .44-.36.81-.81.81-.45 0-.81-.37-.81-.81zm-8.109 0c0-.45.36-.81.81-.81.45 0 .81.36.81.81 0 .44-.36.81-.81.81-.451 0-.81-.37-.81-.81zm-8.111 0c0-.45.37-.81.82-.81.44 0 .81.36.81.81 0 .44-.37.81-.81.81-.45 0-.82-.37-.82-.81zm-8.1 0c0-.45.36-.81.81-.81.45 0 .81.36.81.81 0 .44-.36.81-.81.81-.45 0-.81-.37-.81-.81zm-8.11 0c0-.45.36-.81.81-.81.45 0 .81.36.81.81 0 .44-.36.81-.81.81-.45 0-.81-.37-.81-.81zm-8.11 0c0-.45.37-.81.81-.81.45 0 .81.36.81.81 0 .44-.36.81-.81.81-.44 0-.81-.37-.81-.81zm-8.1 0c0-.45.36-.81.81-.81.44 0 .81.36.81.81 0 .44-.37.81-.81.81-.45 0-.81-.37-.81-.81zm-8.11 0c0-.45.36-.81.81-.81.45 0 .81.36.81.81 0 .44-.36.81-.81.81-.45 0-.81-.37-.81-.81zm-8.109 0c0-.45.37-.81.81-.81.45 0 .81.36.81.81 0 .44-.36.81-.81.81-.441 0-.81-.37-.81-.81zm-8.101 0c0-.45.36-.81.81-.81.44 0 .81.36.81.81 0 .44-.37.81-.81.81-.45 0-.81-.37-.81-.81zm-8.11 0c0-.45.36-.81.81-.81.45 0 .81.36.81.81 0 .44-.36.81-.81.81-.45 0-.81-.37-.81-.81zm-8.11 0c0-.45.36-.81.81-.81.45 0 .81.36.81.81 0 .44-.36.81-.81.81-.45 0-.81-.37-.81-.81zm-8.11 0c0-.45.37-.81.82-.81.44 0 .81.36.81.81 0 .44-.37.81-.81.81-.45 0-.82-.37-.82-.81zm-8.1 0c0-.45.36-.81.81-.81.45 0 .81.36.81.81 0 .44-.36.81-.81.81-.45 0-.81-.37-.81-.81zm-8.11 0c0-.45.36-.81.81-.81.45 0 .81.36.81.81 0 .44-.36.81-.81.81-.45 0-.81-.37-.81-.81zm-8.109 0c0-.45.37-.81.81-.81.45 0 .82.36.82.81 0 .44-.37.81-.82.81-.441 0-.81-.37-.81-.81zm-8.101 0c0-.45.36-.81.81-.81.45 0 .81.36.81.81 0 .44-.36.81-.81.81-.45 0-.81-.37-.81-.81zm-8.11 0c0-.45.36-.81.81-.81.45 0 .81.36.81.81 0 .44-.36.81-.81.81-.45 0-.81-.37-.81-.81zm-8.11 0c0-.45.37-.81.81-.81.45 0 .81.36.81.81 0 .44-.36.81-.81.81-.44 0-.81-.37-.81-.81zm-8.1 0c0-.45.36-.81.81-.81.44 0 .81.36.81.81 0 .44-.37.81-.81.81-.45 0-.81-.37-.81-.81zm-8.11 0c0-.45.36-.81.81-.81.45 0 .81.36.81.81 0 .44-.36.81-.81.81-.45 0-.81-.37-.81-.81zm-8.11 0c0-.45.37-.81.81-.81.45 0 .81.36.81.81 0 .44-.36.81-.81.81-.439 0-.81-.37-.81-.81zm-8.1 0c0-.45.36-.81.81-.81.44 0 .81.36.81.81 0 .44-.37.81-.81.81-.45 0-.81-.37-.81-.81zm-8.11 0c0-.45.36-.81.81-.81.45 0 .81.36.81.81 0 .44-.36.81-.81.81-.45 0-.81-.37-.81-.81zm-8.11 0c0-.45.36-.81.81-.81.45 0 .81.36.81.81 0 .44-.36.81-.81.81-.45 0-.81-.37-.81-.81zm-8.11 0c0-.45.37-.81.82-.81.44 0 .81.36.81.81 0 .44-.37.81-.81.81-.45 0-.82-.37-.82-.81zm-8.1 0c0-.45.36-.81.81-.81.45 0 .81.36.81.81 0 .44-.36.81-.81.81-.45 0-.81-.37-.81-.81zm-8.11 0c0-.45.36-.81.81-.81.45 0 .81.36.81.81 0 .44-.36.81-.81.81-.45 0-.81-.37-.81-.81zm-8.11 0c0-.45.37-.81.81-.81.45 0 .81.36.81.81 0 .44-.36.81-.81.81-.439 0-.81-.37-.81-.81zm-8.1 0c0-.45.36-.81.81-.81.44 0 .81.36.81.81 0 .44-.37.81-.81.81-.45 0-.81-.37-.81-.81zm-8.11 0c0-.45.36-.81.81-.81.45 0 .81.36.81.81 0 .44-.36.81-.81.81-.45 0-.81-.37-.81-.81zm-8.11 0c0-.45.37-.81.81-.81.45 0 .81.36.81.81 0 .44-.36.81-.81.81-.44 0-.81-.37-.81-.81zm-8.1 0c0-.45.36-.81.81-.81.44 0 .81.36.81.81 0 .44-.37.81-.81.81-.45 0-.81-.37-.81-.81zm-8.11 0c0-.45.36-.81.81-.81.45 0 .81.36.81.81 0 .44-.36.81-.81.81-.45 0-.81-.37-.81-.81zm-8.11 0c0-.45.36-.81.81-.81.45 0 .81.36.81.81 0 .44-.36.81-.81.81-.45 0-.81-.37-.81-.81z"/><path d="m1198.145 1210.718c-45.255 0-65.544-35.374-85.165-69.583-19.828-34.57-40.332-70.317-86.875-70.317-55.916 0-73.732 32.729-88.049 59.026l-1.315 2.413c-.536.982-1.767 1.346-2.75.807-.982-.537-1.344-1.768-.807-2.75l1.312-2.408c7.292-13.394 15.556-28.575 29.35-40.528 16.006-13.871 36.372-20.613 62.259-20.613 48.891 0 69.988 36.783 90.391 72.354 19.923 34.736 38.741 67.546 81.648 67.546 39.646 0 59.824-39.638 81.186-81.604 21.589-42.411 46.059-90.481 94.913-104.01 1.082-.3 2.196.333 2.494 1.412.299 1.079-.333 2.195-1.412 2.494-47.134 13.053-70.137 58.241-92.382 101.942-21.941 43.105-42.666 83.819-84.798 83.819z"/><path d="m935.355 1175.895c-1.119 0-2.027-.908-2.027-2.027s.908-2.027 2.027-2.027c46.304 0 63.996-39.569 81.105-77.835 16.053-35.903 32.652-73.028 73.297-73.028 40.279 0 55.812 24.835 70.834 48.853 15.591 24.927 31.712 50.702 76.123 50.702 48.418 0 101.088-36.72 136.747-67.523.846-.732 2.127-.639 2.858.209.732.847.638 2.126-.209 2.858-65.547 56.624-111.983 68.51-139.396 68.51-46.656 0-63.383-26.744-79.56-52.606-15.101-24.144-29.364-46.948-67.398-46.948-38.018 0-53.357 34.307-69.597 70.629-17.635 39.444-35.872 80.233-84.804 80.233z"/><path d="m1221.033 751.744c-.65 0-1.288-.312-1.68-.89l-84.479-124.639c-.628-.927-.386-2.187.541-2.815.928-.627 2.187-.386 2.815.541l84.479 124.639c.628.927.386 2.187-.541 2.815-.348.235-.744.349-1.135.349z"/><path d="m1136.433 777.72c-22.691 0-45.266-5.125-66.296-15.295-36.687-17.741-64.269-48.706-77.666-87.191s-11.005-79.885 6.735-116.572 48.706-64.269 87.191-77.666c31.357-10.916 64.613-11.395 96.173-1.384 30.514 9.678 57.744 29.112 76.673 54.721l.683.937c.317.435.448.977.365 1.508-.083.532-.375 1.008-.81 1.325l-115.998 84.438 143.093-10.45c1.109-.077 2.087.757 2.169 1.873 5.062 68.703-36.896 132.522-102.037 155.198-16.424 5.716-33.383 8.558-50.275 8.558zm.136-301.224c-16.451 0-32.897 2.778-48.839 8.328-37.463 13.041-67.606 39.891-84.875 75.603s-19.597 76.012-6.556 113.475c26.921 77.336 111.74 118.354 189.077 91.432 62.771-21.851 103.431-82.947 99.464-149.051l-148.14 10.817c-.89.066-1.739-.475-2.051-1.325-.311-.85-.021-1.803.71-2.335l120.089-87.416c-18.395-24.566-44.681-43.216-74.104-52.548-14.675-4.656-29.727-6.98-44.775-6.98z"/><path d="m1136.555 627.105c-.05 0-.101-.002-.152-.006-1.116-.083-1.954-1.055-1.871-2.171l11.13-150.16c.083-1.116 1.045-1.956 2.171-1.871 1.116.083 1.954 1.055 1.871 2.171l-11.13 150.16c-.079 1.065-.968 1.877-2.019 1.877z"/><path d="m1329.198 510.62-121.557 88.484 150.171-10.967h.002c-.946-12.845-3.569-25.78-8.005-38.522-4.994-14.347-11.941-27.458-20.439-39.139z"/><path d="m1207.64 601.131c-.845 0-1.608-.527-1.902-1.33-.311-.85-.021-1.803.71-2.335l121.5-88.442.118-.099c.431-.361.995-.531 1.549-.46.558.068 1.063.365 1.394.819 8.788 12.08 15.757 25.425 20.714 39.666 4.407 12.661 7.136 25.795 8.112 39.04.039.536-.136 1.066-.487 1.473-.352.407-.85.658-1.387.697l-150.173 10.967c-.049.002-.099.004-.148.004zm121.281-87.803-114.35 83.238 141.057-10.301c-1.067-12.204-3.666-24.3-7.733-35.983-4.6-13.215-10.979-25.638-18.974-36.954z"/><path d="m1020.714 528.905c-32.513 39.237-44.305 94.026-26.33 145.662l142.169-49.489-115.837-96.172z"/><path d="m994.384 676.595c-.839 0-1.623-.524-1.914-1.361-8.791-25.254-10.812-52.408-5.845-78.526 4.819-25.337 16.067-49.23 32.529-69.096.343-.415.837-.675 1.373-.725.534-.05 1.068.115 1.482.458l115.838 96.173c.562.467.83 1.201.7 1.92s-.637 1.313-1.328 1.553l-142.168 49.489c-.221.078-.446.115-.667.115zm26.607-144.825c-15.328 19.023-25.819 41.694-30.384 65.696-4.709 24.762-2.965 50.48 5.038 74.517l136.851-47.638z"/><path d="m540.609 1098.436h21.153v148.716h-21.153z"/><path d="m572.022 1023.005h21.153v224.147h-21.153z"/><path d="m603.435 934.282h21.153v312.87h-21.153z"/><path d="m634.848 985.739h21.153v261.413h-21.153z"/><path d="m666.261 1043.382h21.153v203.77h-21.153z"/><path d="m697.673 995.914h21.153v251.238h-21.153z"/><path d="m729.086 950.867h21.153v296.285h-21.153z"/><path d="m760.499 1006.792h21.153v240.36h-21.153z"/><path d="m528.762 1245.125h264.736v4.054h-264.736z"/><path d="m125.213 1034.836h8.427v70.702h-8.427z"/><path d="m135.667 1107.565h-12.48v-74.756h12.48zm-8.427-4.053h4.373v-66.648h-4.373z"/></g><path d="m125.213 964.134h8.427v70.702h-8.427z" fill="#fff"/><path d="m135.667 1036.863h-12.48v-74.756h12.48zm-8.427-4.053h4.373v-66.649h-4.373z" fill="#231f20"/><path d="m143.521 1070.705h8.427v70.702h-8.427z" fill="#231f20"/><path d="m153.975 1143.435h-12.48v-74.756h12.48zm-8.427-4.054h4.373v-66.649h-4.373z" fill="#231f20"/><path d="m143.521 1000.003h8.427v70.702h-8.427z" fill="#fff"/><path d="m153.975 1072.732h-12.48v-74.756h12.48zm-8.427-4.054h4.373v-66.649h-4.373z" fill="#231f20"/><path d="m161.829 1103.534h8.427v70.702h-8.427z" fill="#231f20"/><path d="m172.283 1176.263h-12.48v-74.756h12.48zm-8.427-4.054h4.373v-66.648h-4.373z" fill="#231f20"/><path d="m161.829 1032.831h8.427v70.702h-8.427z" fill="#fff"/><path d="m172.283 1105.561h-12.48v-74.756h12.48zm-8.427-4.054h4.373v-66.649h-4.373z" fill="#231f20"/><path d="m180.137 1056.906h8.427v70.702h-8.427z" fill="#231f20"/><path d="m190.59 1129.635h-12.48v-74.756h12.48zm-8.426-4.053h4.373v-66.648h-4.373z" fill="#231f20"/><path d="m180.137 986.204h8.427v70.702h-8.427z" fill="#fff"/><path d="m190.59 1058.933h-12.48v-74.756h12.48zm-8.426-4.054h4.373v-66.649h-4.373z" fill="#231f20"/><path d="m198.445 1099.379h8.427v70.702h-8.427z" fill="#231f20"/><path d="m208.898 1172.108h-12.48v-74.756h12.48zm-8.426-4.054h4.373v-66.649h-4.373z" fill="#231f20"/><path d="m198.445 1028.676h8.427v70.702h-8.427z" fill="#fff"/><path d="m208.898 1101.405h-12.48v-74.756h12.48zm-8.426-4.053h4.373v-66.648h-4.373z" fill="#231f20"/><path d="m216.753 1126.81h8.427v70.702h-8.427z" fill="#231f20"/><path d="m227.206 1199.539h-12.48v-74.756h12.48zm-8.427-4.054h4.373v-66.649h-4.373z" fill="#231f20"/><path d="m216.753 1056.107h8.427v70.702h-8.427z" fill="#fff"/><path d="m227.206 1128.836h-12.48v-74.756h12.48zm-8.427-4.053h4.373v-66.649h-4.373z" fill="#231f20"/><path d="m235.06 1153.25h8.427v70.702h-8.427z" fill="#231f20"/><path d="m245.514 1225.979h-12.48v-74.756h12.48zm-8.427-4.053h4.373v-66.648h-4.373z" fill="#231f20"/><path d="m235.06 1082.548h8.427v70.702h-8.427z" fill="#fff"/><path d="m245.514 1155.277h-12.48v-74.756h12.48zm-8.427-4.053h4.373v-66.649h-4.373z" fill="#231f20"/><path d="m253.368 1168.509h8.427v70.702h-8.427z" fill="#231f20"/><path d="m263.822 1241.239h-12.48v-74.756h12.48zm-8.427-4.054h4.373v-66.649h-4.373z" fill="#231f20"/><path d="m253.368 1097.807h8.427v70.702h-8.427z" fill="#fff"/><path d="m263.822 1170.536h-12.48v-74.756h12.48zm-8.427-4.054h4.373v-66.648h-4.373z" fill="#231f20"/><path d="m271.676 1131.437h8.427v70.702h-8.427z" fill="#231f20"/><path d="m282.13 1204.167h-12.48v-74.756h12.48zm-8.427-4.054h4.373v-66.649h-4.373z" fill="#231f20"/><path d="m271.676 1060.735h8.427v70.702h-8.427z" fill="#fff"/><path d="m282.13 1133.464h-12.48v-74.756h12.48zm-8.427-4.054h4.373v-66.648h-4.373z" fill="#231f20"/><path d="m289.984 1148.727h8.427v70.702h-8.427z" fill="#231f20"/><path d="m300.438 1221.456h-12.48v-74.756h12.48zm-8.427-4.054h4.373v-66.649h-4.373z" fill="#231f20"/><path d="m289.984 1078.024h8.427v70.702h-8.427z" fill="#fff"/><path d="m300.438 1150.753h-12.48v-74.756h12.48zm-8.427-4.053h4.373v-66.648h-4.373z" fill="#231f20"/><path d="m308.292 1097.764h8.427v70.702h-8.427z" fill="#231f20"/><path d="m318.746 1170.493h-12.48v-74.756h12.48zm-8.427-4.054h4.373v-66.648h-4.373z" fill="#231f20"/><path d="m308.292 1027.061h8.427v70.702h-8.427z" fill="#fff"/><path d="m318.746 1099.791h-12.48v-74.756h12.48zm-8.427-4.054h4.373v-66.649h-4.373z" fill="#231f20"/><path d="m326.6 1072.256h8.427v70.702h-8.427z" fill="#231f20"/><path d="m337.053 1144.985h-12.48v-74.756h12.48zm-8.427-4.054h4.374v-66.649h-4.373v66.649z" fill="#231f20"/><path d="m326.6 1001.553h8.427v70.702h-8.427z" fill="#fff"/><path d="m337.053 1074.282h-12.48v-74.756h12.48zm-8.427-4.053h4.374v-66.648h-4.373v66.648z" fill="#231f20"/><path d="m344.908 1055.799h8.427v70.702h-8.427z" fill="#231f20"/><path d="m355.361 1128.528h-12.48v-74.756h12.48zm-8.426-4.053h4.373v-66.648h-4.373z" fill="#231f20"/><path d="m344.908 985.097h8.427v70.702h-8.427z" fill="#fff"/><path d="m355.361 1057.826h-12.48v-74.756h12.48zm-8.426-4.054h4.373v-66.649h-4.373z" fill="#231f20"/><path d="m363.215 1078.024h8.427v70.702h-8.427z" fill="#231f20"/><path d="m373.669 1150.753h-12.48v-74.756h12.48zm-8.427-4.053h4.373v-66.648h-4.373z" fill="#231f20"/><path d="m363.215 1007.322h8.427v70.702h-8.427z" fill="#fff"/><path d="m373.669 1080.051h-12.48v-74.756h12.48zm-8.427-4.053h4.373v-66.649h-4.373z" fill="#231f20"/><path d="m381.523 1012.924h8.427v70.702h-8.427z" fill="#231f20"/><path d="m391.977 1085.653h-12.481v-74.756h12.481zm-8.427-4.053h4.374v-66.648h-4.374z" fill="#231f20"/><path d="m381.523 942.222h8.427v70.702h-8.427z" fill="#fff"/><path d="m391.977 1014.951h-12.481v-74.756h12.481zm-8.427-4.054h4.374v-66.649h-4.374z" fill="#231f20"/></svg>